<?xml version="1.0" encoding="utf-8" standalone="no"?>
<!DOCTYPE svg PUBLIC "-//W3C//DTD SVG 1.1//EN"
  "http://www.w3.org/Graphics/SVG/1.1/DTD/svg11.dtd">
<!-- Created with matplotlib (https://matplotlib.org/) -->
<svg height="302.4pt" version="1.1" viewBox="0 0 446.4 302.4" width="446.4pt" xmlns="http://www.w3.org/2000/svg" xmlns:xlink="http://www.w3.org/1999/xlink">
 <metadata>
  <rdf:RDF xmlns:cc="http://creativecommons.org/ns#" xmlns:dc="http://purl.org/dc/elements/1.1/" xmlns:rdf="http://www.w3.org/1999/02/22-rdf-syntax-ns#">
   <cc:Work>
    <dc:type rdf:resource="http://purl.org/dc/dcmitype/StillImage"/>
    <dc:date>2021-06-04T11:33:35.019017</dc:date>
    <dc:format>image/svg+xml</dc:format>
    <dc:creator>
     <cc:Agent>
      <dc:title>Matplotlib v3.3.1, https://matplotlib.org/</dc:title>
     </cc:Agent>
    </dc:creator>
   </cc:Work>
  </rdf:RDF>
 </metadata>
 <defs>
  <style type="text/css">*{stroke-linecap:butt;stroke-linejoin:round;}</style>
 </defs>
 <g id="figure_1">
  <g id="patch_1">
   <path d="M 0 302.4 
L 446.4 302.4 
L 446.4 0 
L 0 0 
z
" style="fill:#ffffff;"/>
  </g>
  <g id="axes_1">
   <g id="LineCollection_1">
    <path clip-path="url(#pdfc125279b)" d="M 419.563636 151.200004 
L 382.061521 70.293737 
" style="fill:none;stroke:#000000;"/>
    <path clip-path="url(#pdfc125279b)" d="M 419.563636 151.200004 
L 283.879726 282.109091 
" style="fill:none;stroke:#000000;"/>
    <path clip-path="url(#pdfc125279b)" d="M 419.563636 151.200004 
L 64.338479 70.293737 
" style="fill:none;stroke:#000000;"/>
    <path clip-path="url(#pdfc125279b)" d="M 382.061521 70.293737 
L 283.879696 20.290909 
" style="fill:none;stroke:#000000;"/>
    <path clip-path="url(#pdfc125279b)" d="M 382.061521 70.293737 
L 382.061509 232.106279 
" style="fill:none;stroke:#000000;"/>
    <path clip-path="url(#pdfc125279b)" d="M 382.061521 70.293737 
L 162.520274 282.109091 
" style="fill:none;stroke:#000000;"/>
    <path clip-path="url(#pdfc125279b)" d="M 283.879696 20.290909 
L 162.520292 20.290917 
" style="fill:none;stroke:#000000;"/>
    <path clip-path="url(#pdfc125279b)" d="M 283.879696 20.290909 
L 382.061509 232.106279 
" style="fill:none;stroke:#000000;"/>
    <path clip-path="url(#pdfc125279b)" d="M 283.879696 20.290909 
L 162.520274 282.109091 
" style="fill:none;stroke:#000000;"/>
    <path clip-path="url(#pdfc125279b)" d="M 162.520292 20.290917 
L 64.338479 70.293737 
" style="fill:none;stroke:#000000;"/>
    <path clip-path="url(#pdfc125279b)" d="M 162.520292 20.290917 
L 26.836364 151.200016 
" style="fill:none;stroke:#000000;"/>
    <path clip-path="url(#pdfc125279b)" d="M 64.338479 70.293737 
L 26.836364 151.200016 
" style="fill:none;stroke:#000000;"/>
    <path clip-path="url(#pdfc125279b)" d="M 64.338479 70.293737 
L 64.338491 232.106279 
" style="fill:none;stroke:#000000;"/>
    <path clip-path="url(#pdfc125279b)" d="M 64.338479 70.293737 
L 162.520274 282.109091 
" style="fill:none;stroke:#000000;"/>
    <path clip-path="url(#pdfc125279b)" d="M 26.836364 151.200016 
L 64.338491 232.106279 
" style="fill:none;stroke:#000000;"/>
    <path clip-path="url(#pdfc125279b)" d="M 26.836364 151.200016 
L 162.520274 282.109091 
" style="fill:none;stroke:#000000;"/>
    <path clip-path="url(#pdfc125279b)" d="M 64.338491 232.106279 
L 162.520274 282.109091 
" style="fill:none;stroke:#000000;"/>
    <path clip-path="url(#pdfc125279b)" d="M 64.338491 232.106279 
L 283.879726 282.109091 
" style="fill:none;stroke:#000000;"/>
    <path clip-path="url(#pdfc125279b)" d="M 162.520274 282.109091 
L 382.061509 232.106279 
" style="fill:none;stroke:#000000;"/>
    <path clip-path="url(#pdfc125279b)" d="M 283.879726 282.109091 
L 382.061509 232.106279 
" style="fill:none;stroke:#000000;"/>
   </g>
   <g id="PathCollection_1">
    <defs>
     <path d="M 0 8.660254 
C 2.296726 8.660254 4.499694 7.747755 6.123724 6.123724 
C 7.747755 4.499694 8.660254 2.296726 8.660254 0 
C 8.660254 -2.296726 7.747755 -4.499694 6.123724 -6.123724 
C 4.499694 -7.747755 2.296726 -8.660254 0 -8.660254 
C -2.296726 -8.660254 -4.499694 -7.747755 -6.123724 -6.123724 
C -7.747755 -4.499694 -8.660254 -2.296726 -8.660254 0 
C -8.660254 2.296726 -7.747755 4.499694 -6.123724 6.123724 
C -4.499694 7.747755 -2.296726 8.660254 0 8.660254 
z
" id="m1f654b7906" style="stroke:#1f78b4;"/>
    </defs>
    <g clip-path="url(#pdfc125279b)">
     <use style="fill:#1f78b4;stroke:#1f78b4;" x="419.563636" xlink:href="#m1f654b7906" y="151.200004"/>
     <use style="fill:#1f78b4;stroke:#1f78b4;" x="382.061521" xlink:href="#m1f654b7906" y="70.293737"/>
     <use style="fill:#1f78b4;stroke:#1f78b4;" x="283.879696" xlink:href="#m1f654b7906" y="20.290909"/>
     <use style="fill:#1f78b4;stroke:#1f78b4;" x="162.520292" xlink:href="#m1f654b7906" y="20.290917"/>
     <use style="fill:#1f78b4;stroke:#1f78b4;" x="64.338479" xlink:href="#m1f654b7906" y="70.293737"/>
     <use style="fill:#1f78b4;stroke:#1f78b4;" x="26.836364" xlink:href="#m1f654b7906" y="151.200016"/>
     <use style="fill:#1f78b4;stroke:#1f78b4;" x="64.338491" xlink:href="#m1f654b7906" y="232.106279"/>
     <use style="fill:#1f78b4;stroke:#1f78b4;" x="162.520274" xlink:href="#m1f654b7906" y="282.109091"/>
     <use style="fill:#1f78b4;stroke:#1f78b4;" x="283.879726" xlink:href="#m1f654b7906" y="282.109091"/>
     <use style="fill:#1f78b4;stroke:#1f78b4;" x="382.061509" xlink:href="#m1f654b7906" y="232.106279"/>
    </g>
   </g>
  </g>
 </g>
 <defs>
  <clipPath id="pdfc125279b">
   <rect height="288" width="432" x="7.2" y="7.2"/>
  </clipPath>
 </defs>
</svg>
